# xmcd CD database file
#
# Track frame offsets:
#	150
#	25232
#	51062
#	75277
#	94657
#	118982
#	142800
#	160837
#	186112
#	207295
#	234655
#
# Disc length: 3404 seconds
#
# Revision: 0
# Processed by: cddbd v1.4PL0 Copyright (c) Steve Scherf et al.
# Submitted via: CDex 1.50
#
DISCID=870d4a0b
DTITLE=Kimiko Itoh - The Best Of Kimiko Itoh
DYEAR=1900
DGENRE=Jazz
TTITLE0=Follow Me
TTITLE1=Miracles Of Loving
TTITLE2=Love
TTITLE3=Summertime
TTITLE4=Here In Your Arms (Manha De Carnaval)
TTITLE5=The First Time Ever I Saw Your Face
TTITLE6=The Look Of Love
TTITLE7=New York State Of Mind
TTITLE8=Skylark
TTITLE9=Bridge Over Troubled Water
TTITLE10=Song Of Our Love(Song Of The Birds)
EXTD=
EXTT0=
EXTT1=
EXTT2=
EXTT3=
EXTT4=
EXTT5=
EXTT6=
EXTT7=
EXTT8=
EXTT9=
EXTT10=
PLAYORDER=
